<?xml version="1.0" standalone="no"?>
<!DOCTYPE svg PUBLIC "-//W3C//DTD SVG 20010904//EN"
 "http://www.w3.org/TR/2001/REC-SVG-20010904/DTD/svg10.dtd">
<svg version="1.0" xmlns="http://www.w3.org/2000/svg"
 width="700.000000pt" height="700.000000pt" viewBox="0 0 700.000000 700.000000"
 preserveAspectRatio="xMidYMid meet">
<metadata>
Created by potrace 1.11, written by Peter Selinger 2001-2013
</metadata>
<g transform="translate(0.000000,700.000000) scale(0.100000,-0.100000)"
fill="#000000" stroke="none">
<path d="M4752 5905 c-17 -8 -35 -22 -40 -32 -8 -15 -116 -357 -182 -578 -10
-33 -48 -159 -85 -280 -37 -121 -79 -256 -92 -300 -14 -44 -31 -100 -38 -125
-7 -25 -25 -83 -40 -130 -15 -47 -32 -102 -37 -123 l-10 -37 -17 29 c-9 16
-70 87 -136 157 -66 70 -128 136 -138 148 -10 11 -48 52 -85 91 -37 39 -96
103 -132 141 -151 163 -170 183 -196 203 -30 23 -68 27 -100 8 -12 -7 -73 -60
-135 -118 -177 -166 -178 -167 -320 -299 -142 -133 -230 -215 -344 -322 -38
-37 -86 -81 -105 -98 -19 -18 -65 -60 -101 -94 -36 -33 -121 -113 -189 -176
-68 -63 -138 -128 -154 -144 -17 -15 -80 -74 -140 -130 -59 -55 -123 -114
-140 -131 -18 -16 -88 -82 -156 -145 -67 -63 -134 -126 -149 -139 -22 -20
-194 -180 -306 -284 -151 -142 -247 -232 -271 -254 -16 -14 -83 -77 -149 -139
-66 -62 -133 -125 -150 -140 -16 -15 -91 -84 -165 -153 -74 -69 -166 -155
-204 -191 -182 -169 -186 -174 -186 -217 0 -35 7 -48 53 -96 28 -31 92 -99
142 -153 50 -54 104 -112 120 -129 17 -18 80 -86 140 -151 218 -235 259 -274
289 -274 37 0 62 15 121 71 28 26 66 61 85 79 31 28 175 163 296 277 22 21 90
84 150 139 132 123 149 139 299 279 64 61 132 124 150 140 17 17 83 78 146
136 63 59 130 121 149 139 36 33 109 101 240 224 85 80 304 284 359 334 20 19
63 59 96 90 34 31 119 111 189 177 71 66 145 135 165 154 20 18 80 74 134 125
55 50 118 109 141 131 36 33 206 192 306 285 145 135 268 249 290 270 89 84
93 87 81 60 -6 -14 -29 -83 -50 -155 -22 -71 -64 -211 -94 -310 -117 -380
-135 -442 -150 -490 -8 -27 -49 -162 -92 -300 -42 -137 -83 -272 -92 -300 -8
-27 -37 -122 -65 -210 -27 -88 -53 -173 -58 -190 -8 -32 -36 -123 -156 -511
-41 -133 -74 -252 -74 -266 0 -39 36 -76 88 -92 64 -19 250 -76 412 -126 74
-23 142 -43 150 -45 8 -2 35 -10 60 -18 105 -35 213 -68 266 -82 49 -13 59
-13 85 0 16 9 33 23 38 33 5 9 48 145 95 302 48 157 92 299 98 315 5 17 14 44
18 60 5 17 18 60 29 98 12 37 30 95 40 130 10 34 42 139 71 232 28 94 69 226
90 295 90 291 159 517 168 550 6 19 31 103 57 185 26 83 53 170 60 195 12 43
124 408 202 660 19 63 41 135 48 160 7 25 34 113 60 195 25 83 48 157 50 165
2 8 34 112 70 230 94 303 103 333 135 440 15 52 33 108 39 123 17 44 13 83
-11 112 -18 20 -59 37 -188 77 -91 27 -221 67 -290 88 -324 99 -487 148 -506
153 -12 2 -35 -1 -52 -8z"/>
<path d="M5872 5844 c-34 -24 -45 -53 -48 -134 -1 -41 -5 -158 -9 -260 -3
-102 -8 -234 -10 -295 -2 -60 -7 -186 -10 -280 -3 -93 -8 -217 -10 -275 -2
-58 -7 -190 -10 -295 -3 -104 -8 -233 -10 -285 -2 -52 -7 -183 -10 -290 -4
-107 -8 -238 -10 -290 -4 -97 -13 -357 -20 -580 -3 -69 -7 -188 -10 -265 -3
-77 -7 -207 -10 -290 -3 -82 -7 -215 -10 -295 -6 -153 -11 -289 -21 -615 l-6
-200 27 -28 c15 -15 35 -27 44 -28 9 0 48 -2 86 -4 39 -2 149 -6 245 -9 96 -3
247 -9 335 -12 88 -3 201 -7 250 -8 103 -4 127 3 151 39 18 28 19 38 28 335 4
107 8 240 11 295 2 55 7 183 10 285 3 102 8 239 10 305 2 66 7 192 10 280 3
88 7 214 10 280 2 66 7 199 10 295 3 96 7 225 10 285 2 61 7 189 10 285 3 96
7 225 10 285 2 61 7 191 10 290 3 99 8 232 10 295 2 63 7 194 10 290 4 96 8
218 10 270 17 480 17 537 0 563 -27 41 -23 41 -360 51 -94 3 -231 8 -305 11
-368 15 -406 14 -428 -1z"/>
</g>
</svg>
